<svg version="1.2" xmlns="http://www.w3.org/2000/svg" viewBox="0 0 453 477" width="453" height="477">
	<title>undraw_real_time_collaboration_c62i (1)-svg</title>
	<style>
		.s0 { fill: #3f3d56 } 
		.s1 { fill: #ffffff } 
		.s2 { opacity: .1;fill: #000000 } 
		.s3 { fill: #2f2e41 } 
		.s4 { fill: #a0616a } 
		.s5 { fill: #d0cde1 } 
		.s6 { fill: #fbbebe } 
		.s7 { fill: #b3b3b3 } 
		.s8 { opacity: .2;fill: #000000 } 
		.s9 { fill: #e6e6e6 } 
	</style>
	<path id="Layer" fill-rule="evenodd" class="s0" d="m581.6 162.6c-18.6 11.2-51.8 25.2-85.8 10.8l-21.9-9.3 43.9-49.3c-72.7-80.2-72.6-202.5 0.3-282.5 72.9-80.1 194.7-91.6 281.3-26.7 86.6 65 109.7 185.1 53.3 277.5-56.4 92.4-173.7 126.8-271.1 79.5zm-84.2-189.2c-0.1 12 1.1 24 3.5 35.7 2.4 11.8 6 23.3 10.8 34.3 4.8 11 10.7 21.5 17.6 31.3 6.9 9.8 14.8 18.9 23.6 27.1l12.2 11.4-27.7 31c14.4-2.9 27-10.7 33.3-15.2l8.8-6.3 9.4 5.2q9.7 5.3 19.9 9.4 10.3 4 21 6.8 10.8 2.7 21.7 4.1 11 1.4 22.1 1.4c97.1 0 176.2-79.1 176.2-176.2 0-97.2-79.1-176.2-176.2-176.2-97.2 0-176.2 79-176.2 176.2z"/>
	<path id="Layer" class="s1" d="m480.3-26.6c0-106.8 86.5-193.3 193.3-193.3 106.7 0 193.2 86.5 193.2 193.3 0 106.7-86.5 193.2-193.2 193.2q-12.2 0.1-24.2-1.4-12.1-1.5-23.8-4.6-11.8-3-23-7.4-11.3-4.5-22-10.3c-13.3 9.5-45.9 28.4-78.1 14.8l38.7-43.5c-9.6-9-18.2-18.9-25.8-29.7-7.6-10.8-14-22.3-19.3-34.4-5.2-12.1-9.2-24.6-11.8-37.5-2.7-12.9-4-26.1-4-39.2z"/>
	<path id="Layer" class="s2" d="m833.9-26.2c0-101-77.4-183.9-176.2-192.5q8.5-0.8 17.1-0.8c106.7 0 193.3 86.5 193.3 193.3 0 106.7-86.6 193.3-193.3 193.3q-8.6 0-17.1-0.8c98.8-8.7 176.2-91.5 176.2-192.5z"/>
	<path id="Layer" fill-rule="evenodd" class="s0" d="m228.2 431.1c-99.6 0.1-185.5-69.6-206.2-167-20.6-97.3 29.8-195.8 120.8-236.1 91-40.3 197.8-11.4 256.1 69.3 58.2 80.8 51.9 191.2-15 264.9l44 49.3-22 9.3c-33.9 14.4-67.2 0.4-85.8-10.8q-10.7 5.2-21.9 9.2-11.3 3.9-22.9 6.6-11.6 2.6-23.4 4-11.8 1.3-23.7 1.3zm0-386.5c-97.2 0-176.2 79-176.2 176.2 0 97.1 79 176.2 176.2 176.2q11 0 22-1.4 11-1.4 21.7-4.1 10.7-2.8 21-6.8 10.3-4.1 20-9.4l9.4-5.2 8.7 6.2c6.4 4.6 18.9 12.4 33.3 15.3l-27.6-31 12.1-11.4c8.8-8.2 16.7-17.3 23.6-27.1 6.9-9.8 12.8-20.3 17.6-31.3 4.8-11 8.4-22.5 10.8-34.3 2.4-11.8 3.6-23.7 3.6-35.7 0-97.2-79.1-176.2-176.2-176.2z"/>
	<path id="Layer" class="s1" d="m417.5 260c-2.7 12.8-6.7 25.4-11.9 37.5-5.2 12.1-11.7 23.6-19.3 34.4-7.5 10.8-16.2 20.7-25.8 29.7l38.7 43.5c-32.2 13.6-64.7-5.3-78.1-14.8q-10.6 5.8-21.9 10.3-11.3 4.4-23.1 7.4-11.7 3-23.8 4.6-12 1.5-24.1 1.4c-106.8 0-193.3-86.5-193.3-193.2 0-106.8 86.5-193.3 193.3-193.3 106.7 0 193.2 86.5 193.2 193.3 0.1 13.1-1.3 26.3-3.9 39.2z"/>
	<path id="Layer" class="s2" d="m245.2 412.3q-8.4 0.8-17 0.8c-106.8 0-193.3-86.6-193.3-193.3 0-106.8 86.5-193.3 193.3-193.3q8.6 0 17 0.8c-98.7 8.6-176.2 91.5-176.2 192.5 0 101 77.5 183.8 176.2 192.5z"/>
	<path id="Layer" class="s3" d="m725.4-24.5c1 12.1-31 10.7-64.7 11.8q-1.7 0.1-3.4 0.1-1.7 0-3.4 0-1.6-0.1-3.3-0.1-1.7-0.1-3.4-0.2l-3.5-19-5.7 17.6c-31.4-7.1-11.3-36.3 3.3-66.7 15.6-32.5 40-29.4 40-29.4 0 0 25 1 37.6 22.4 12.2 20.5 5.1 47.5 6.5 63.5z"/>
	<path id="Layer" class="s3" d="m636.6 97.2q0.3-1 0.5-2 0.3-0.9 0.6-1.9 0.2-0.9 0.5-1.9c0.9-2.7 0.9-3.6 3.7-3.5 9.5 0.1 19.1 1.6 28.7 1.6q3.5 0.1 7 0 3.5-0.1 7-0.2 3.5-0.2 7-0.4 3.6-0.3 7.1-0.6c3.6-0.4 7.2-0.8 10.8 0q2.5 0.6 4.8 1.9 2.2 1.4 4 3.4 1.7 1.9 2.8 4.3 1.1 2.5 1.4 5.1c0.3 3-0.3 6.1-0.5 9.2-0.2 5.6 0.9 11.1 0.9 16.7q0.1 0.6 0 1.2 0 0.7-0.1 1.3-0.2 0.6-0.4 1.1-0.2 0.6-0.5 1.2-0.3 0.3-0.7 0.7-0.3 0.3-0.7 0.6-0.4 0.3-0.8 0.5-0.4 0.3-0.8 0.5-1.3 0.7-2.7 1.5-1.4 0.7-2.8 1.3-1.5 0.7-2.9 1.2-1.5 0.6-2.9 1.1c-12.5 4.3-26 3.9-39.1 3.4q-1.8 0-3.6-0.1-1.8-0.1-3.5-0.3-1.8-0.1-3.6-0.4-1.7-0.3-3.5-0.7-2.3-0.6-4.6-1.5-2.2-0.9-4.3-2.2-2.1-1.2-4-2.7-1.9-1.6-3.5-3.3c-5.1-5.6-8.3-13.6-6-20.7 0.7-2.3 1.9-4.3 2.7-6.6q0.3-0.8 0.5-1.7 0.2-0.8 0.4-1.7 0.2-0.9 0.4-1.8 0.2-0.8 0.3-1.7 0.2-1 0.4-1.9z"/>
	<path id="Layer" class="s4" d="m666.2-49.9c1-0.4 3.8 1.1 4.8 1.3q0.7 0.1 1.4 0.2 0.6 0.1 1.3 0.2 0.7 0 1.4 0.1 0.7 0.1 1.3 0.1l19.6 1.4q0.2 0 0.3 0 0.2 0 0.3 0.1 0.2 0.1 0.3 0.1 0.1 0.1 0.2 0.2 0 0.1 0.1 0.2 0 0.2 0 0.3 0 0.1 0 0.2 0 0.1 0 0.2-0.3 1.6-0.2 3.2 0 1.5 0.2 3.1 0.3 1.5 0.8 3 0.4 1.5 1.1 2.9c1.7 3.2 4.1 6 5.3 9.3q0.3 1.1 0.6 2.3 0.2 1.2 0.3 2.3 0.1 1.2 0.1 2.4 0 1.2-0.2 2.4-0.1 2.5-0.5 5-0.4 2.5-1 4.9-0.5 2.5-1.3 4.9-0.7 2.4-1.7 4.7-0.2 0.6-0.5 1.3-0.3 0.6-0.6 1.2-0.4 0.6-0.8 1.2-0.4 0.6-0.8 1.1c-2.7 3.1-7.1 4.2-11.2 4.1-9.9-0.2-18.7-5.8-26.9-11.3q-0.8-0.5-1.6-1.1-0.8-0.5-1.5-1.2-0.7-0.6-1.3-1.3-0.7-0.7-1.3-1.5c-2.2-3.2-2.2-7.4-2.2-11.3 0-4.3 0.1-8.9 2.8-12.2 1.8-2.1 4.5-3.4 6.2-5.7 1.5-2 2-4.5 2.4-6.9 0.4-2 0.9-10.7 2.8-11.4z"/>
	<path id="Layer" class="s2" d="m666.2-49.3c1-0.4 3.8 1.1 4.8 1.3q0.7 0.1 1.4 0.2 0.6 0.1 1.3 0.2 0.7 0.1 1.4 0.1 0.7 0.1 1.3 0.1l19.6 1.4q0.2 0 0.3 0 0.2 0.1 0.3 0.1 0.2 0.1 0.3 0.1 0.1 0.1 0.2 0.2 0 0.2 0.1 0.3 0 0.1 0 0.2 0 0.1 0 0.2 0 0.1 0 0.2-0.3 1.6-0.2 3.2 0 1.5 0.2 3.1 0.3 1.5 0.8 3 0.4 1.5 1.1 2.9c1.7 3.2 4.1 6 5.3 9.3q0.3 1.1 0.6 2.3 0.2 1.2 0.3 2.4 0.1 1.1 0.1 2.3 0 1.2-0.2 2.4-0.1 2.5-0.5 5-0.4 2.5-1 4.9-0.5 2.5-1.3 4.9-0.7 2.4-1.7 4.7-0.2 0.7-0.5 1.3-0.3 0.6-0.6 1.2-0.4 0.6-0.8 1.2-0.4 0.6-0.8 1.1c-2.7 3.1-7.1 4.2-11.2 4.1-9.9-0.2-18.7-5.8-26.9-11.3q-0.8-0.5-1.6-1.1-0.8-0.5-1.5-1.2-0.7-0.6-1.3-1.3-0.7-0.7-1.3-1.4c-2.2-3.3-2.2-7.5-2.2-11.4 0-4.2 0.1-8.9 2.8-12.2 1.8-2.1 4.5-3.4 6.2-5.7 1.5-2 2-4.5 2.4-6.9 0.4-2 0.9-10.7 2.8-11.4z"/>
	<circle id="Layer" class="s4" cx="682.2" cy="-64.6" r="28.7"/>
	<path id="Layer" class="s1" d="m667.5-0.3q0.5 0.6 1.1 1.2 0.6 0.6 1.2 1.1 0.6 0.5 1.3 0.9 0.7 0.5 1.4 0.9 0.7 0.3 1.5 0.5 0.8 0.2 1.6 0.4 0.8 0.1 1.6 0.2 0.8 0.1 1.6 0.1c5.2 0.1 10.8-0.8 14.4-4.6 4.6-4.8 4.5-12.5 8.1-18.1q0.1-0.2 0.3-0.4 0.1-0.2 0.3-0.3 0.1-0.2 0.3-0.3 0.1-0.2 0.3-0.3 0.2-0.1 0.5-0.2 0.2-0.1 0.5-0.2 0.2 0 0.5 0 0.2-0.1 0.5 0c4.6-0.1 8.6 2.9 12.2 5.7q0.7 0.5 1.2 1 0.6 0.5 1.2 1 0.5 0.6 1 1.2 0.5 0.6 0.9 1.2 0.3 0.5 0.5 1.1 0.2 0.5 0.4 1.1 0.2 0.5 0.3 1.1 0.2 0.6 0.3 1.2c1.8 8.7 2.3 17.7 2.9 26.6 0.3 4.9 0.7 9.8 0.6 14.8 0 16.2-3.8 32.2-7.6 48.1-0.5 2-1.1 4.3-3 5.3q-0.3 0.1-0.6 0.2-0.3 0.1-0.7 0.2-0.3 0.1-0.6 0.1-0.4 0.1-0.7 0.1c-10.8 1.3-21.6 2.5-32.4 2.7q-6.3 0.1-12.7-0.3-0.3 0-0.5 0-0.3-0.1-0.6-0.1-0.2-0.1-0.5-0.1-0.3-0.1-0.5-0.2-0.4-0.1-0.7-0.4-0.3-0.2-0.6-0.4-0.3-0.3-0.6-0.6-0.2-0.2-0.5-0.6c-5.8-7.3-6.2-17.6-6.1-27q0.1-34.6 2.4-69.1c0.2-1.9 0.2-4.2-1.2-5.7q1 1.4 2.1 2.9 1.1 1.4 2.2 2.8 1.2 1.3 2.4 2.7 1.2 1.3 2.5 2.5z"/>
	<path id="Layer" class="s1" d="m660.8-25.5q-0.2 2.9 0 5.9 0.2 2.9 0.8 5.7 0.6 2.9 1.6 5.7 1 2.7 2.3 5.3c1.8 3.7 4 7.3 4.9 11.4q0.2 1.1 0.3 2.3 0.1 1.2 0.2 2.3 0.1 1.2 0 2.4 0 1.2-0.1 2.3-0.7 22.6 0.3 45.2c0.1 3.3 0.3 6.7 0.7 10 0.5 3.2 1.1 6.4 1 9.7-0.1 3.2-1.2 6.6-3.7 8.6-3.2 2.7-7.7 2.6-11.8 2.4q-1.7 0-3.5-0.1-1.7-0.1-3.4-0.2-1.8-0.2-3.5-0.4-1.7-0.2-3.4-0.5c-3.6-0.6-7.4-1.7-9.8-4.4-3.2-3.7-3-9.4-1.6-14.1 1.4-4.8 3.8-9.3 4.3-14.2 0.4-4.3-0.7-8.7-1.7-12.9-1.5-5.7-3-11.5-6.4-16.4-3.1-4.3-7.7-7.7-9.8-12.7-2.3-5.1-1.6-11-0.2-16.4 0.9-3.8 2.2-7.7 4.7-10.7 7.1-8.7 21.1-8.4 28.9-16.6 1.3-1.4 8.5-5.8 9.5-7.5 3.4-6.3-0.1-0.2-0.6 7.9z"/>
	<path id="Layer" class="s1" d="m701.7-32.8c1.5 1.5 6.5 2 8.4 3q0.7 0.3 1.3 0.5 0.7 0.3 1.4 0.6 0.7 0.2 1.4 0.4 0.7 0.2 1.4 0.4 2.6 0.7 5.1 1.6 2.5 1 4.9 2.1 2.4 1.1 4.8 2.4 2.3 1.3 4.6 2.8 0.4 0.2 0.9 0.5 0.4 0.3 0.8 0.7 0.4 0.4 0.8 0.7 0.4 0.4 0.7 0.8 0.4 0.6 0.6 1.2 0.3 0.6 0.6 1.3 0.2 0.6 0.3 1.3 0.2 0.6 0.3 1.3c0.9 4.6 1.8 9.2 1.6 13.8-0.2 5-1.7 9.7-3.2 14.5l-5.5 17.6c-4.1 13.1-8.2 26.4-9.4 40.1q-0.2 2.9-0.3 5.7 0 2.9 0.1 5.7 0.1 2.9 0.3 5.8 0.3 2.8 0.8 5.6 0.1 0.3 0.1 0.6 0 0.3 0 0.6-0.1 0.2-0.2 0.5 0 0.3-0.2 0.5-0.1 0.2-0.3 0.3-0.1 0.1-0.3 0.2-0.2 0-0.4 0.1-0.2 0-0.3 0.1c-2.7 0.4-5.3-1-7.7-2.2q-2.7-1.4-5.6-2.5-2.8-1.2-5.8-2.2-2.9-0.9-5.9-1.7-3-0.7-6-1.2 1.2-1.7 2.2-3.5 1.1-1.8 2-3.7 0.9-1.9 1.7-3.8 0.7-2 1.3-4 0.4-1.2 0.7-2.5 0.3-1.3 0.6-2.6 0.2-1.2 0.5-2.5 0.2-1.3 0.4-2.6l2.6-14.8q0.4-2.1 0.7-4.1 0.3-2.1 0.6-4.1 0.3-2.1 0.5-4.1 0.2-2.1 0.4-4.1 0.1-0.8 0.1-1.6 0-0.8-0.1-1.5 0-0.8-0.1-1.6-0.1-0.8-0.3-1.5-0.2-0.7-0.5-1.5-0.2-0.7-0.5-1.4-0.3-0.7-0.6-1.3-0.4-0.7-0.7-1.4c-4.2-8.8-6.2-18.8-4.6-28.4 0.8-4.2 2.2-8.4 1.6-12.6-0.6-4.1 0-7.3-1-11.3-4.3-16.5-0.4-5.9 2.4-3z"/>
	<path id="Layer" class="s1" d="m623.6 3.1q0.2-0.8 0.5-1.6 0.2-0.7 0.4-1.5 0.2-0.8 0.3-1.6c0.2-1.4-0.1-4.1 1.1-5 2.8-2.2 8.6 2.9 10.3 4.9 3.2 3.7 4.9 8.4 6.1 13.2 2.5 10.6 2.2 21.6 1.9 32.5q-0.3 10.5-0.6 21.1 0 0.3 0 0.7 0 0.4-0.1 0.7-0.1 0.4-0.3 0.7-0.2 0.3-0.4 0.6c-1.6-1-3.3-1.6-5.2-1.8-1.8-0.2-3.6 0-5.4 0.6-1.7 0.5-3.3 1.5-4.7 2.7-1.3 1.3-2.4 2.8-3.1 4.5-2.7-5.4-5.5-11.1-5.3-17.1 0.1-3.9 1.4-7.6 1.6-11.5q0-1 0-2.1-0.1-1-0.3-2-0.1-1.1-0.4-2.1-0.3-1-0.6-1.9c-0.8-1.9-1.7-3.6-2.4-5.5q-0.3-1.2-0.5-2.3-0.2-1.1-0.3-2.3-0.1-1.1-0.1-2.3 0-1.2 0-2.3 0-0.8 0-1.6 0.1-0.7 0.1-1.5 0.1-0.8 0.2-1.5 0.1-0.8 0.3-1.5c1.1-4.3 4.3-7.7 6.2-11.7q0.4-0.8 0.7-1.5z"/>
	<path id="Layer" class="s1" d="m742.2-7q0.3 1.1 0.5 2.2 0.2 1.1 0.3 2.2 0.1 1.1 0.2 2.3 0 1.1 0 2.2 0 9.1-0.3 18.2 0 1.2 0 2.3-0.1 1.2-0.2 2.4-0.2 1.1-0.4 2.3-0.2 1.1-0.5 2.2c-0.7 2-1.6 3.8-2.3 5.8-1.9 5.8-0.8 12.2-0.7 18.3q0.1 0.7 0.1 1.5-0.1 0.7-0.1 1.5-0.1 0.7-0.2 1.5-0.1 0.7-0.3 1.4c-1 3.8-3.7 6.9-5.6 10.4-1.8 3.3-2.9 6.9-5.1 10-2.2 3-5.9 5.5-9.5 4.5-2.8-0.7-4.7-3.1-6.1-5.6q-1.1-2.1-1.8-4.2-0.8-2.2-1.1-4.5-0.4-2.3-0.4-4.6 0.1-2.4 0.5-4.6c1.3-7.5 5.7-14.1 7.3-21.5 2.2-10.2-1.1-20.7-1-31.2q-0.1-0.6 0-1.2 0-0.6 0.1-1.2 0.1-0.6 0.2-1.2 0.1-0.6 0.3-1.2c0.8-2.4 2.6-4.3 4.3-6.2q0.7-0.9 1.5-1.8 0.7-0.9 1.4-1.8 0.8-1 1.4-1.9 0.7-1 1.4-2c1.2-1.7 2.8-6.2 4.8-6.6 4.7-0.9 10.1 6.5 11.3 10.1z"/>
	<path id="Layer" class="s3" d="m624.1 104.9c3.8 1.8 8.1 2.9 11.8 4.8 3.2 1.7 5.4 5.6 8.1 8.1 11.3 10.6 26.9 14.9 40.3 22.6 1.4 0.7 2.9 1.7 3.4 3.1q0.2 0.5 0.2 1 0.1 0.4 0.1 0.9 0 0.5 0 0.9-0.1 0.5-0.2 1l-1.2 8.7q0 0.3-0.1 0.6 0 0.3-0.1 0.6-0.1 0.3-0.2 0.5-0.1 0.3-0.3 0.6-0.3 0.3-0.6 0.6-0.4 0.2-0.7 0.4-0.4 0.3-0.8 0.4-0.5 0.1-0.9 0.2-1.8 0.3-3.6 0.6-1.8 0.2-3.7 0.3-1.8 0.1-3.7 0-1.8 0-3.6-0.2-6.1-0.3-12-1.1-6-0.8-11.9-2-6-1.1-11.8-2.7-5.8-1.6-11.5-3.6c-3.1-1-6.1-2.1-9.1-3.3l-20.4-7.7q-0.9-0.3-1.9-0.7-1-0.4-1.9-0.8-0.9-0.4-1.9-1-0.9-0.5-1.7-1c-3.9-2.7-6.4-7-8.5-11.2q-0.5-1-1-2.1-0.5-1-0.9-2.1-0.4-1.1-0.7-2.2-0.3-1-0.5-2.2c-0.5-2.7-0.5-5.5 0.2-8.3 0.7-2.7 1.9-5.2 3.7-7.4 1.7-2.2 3.9-4 6.3-5.3 2.5-1.3 5.3-2 8-2.2q1 0 2 0 1 0.1 2 0.2 1 0.1 2 0.2 1 0.2 1.9 0.5c9 2 17.1 6.5 25.4 10.3z"/>
	<path id="Layer" class="s2" d="m619.1 106.4c7.2 2.3 37.7 17.9 42.9 23.4-0.7 0.2-24.5-13.1-25.2-13.3q-2.4-0.6-4.8-1.4-2.5-0.8-4.9-1.6-2.3-0.8-4.7-1.8-2.4-0.9-4.7-1.9c-1.2-0.6-8-3.3-7.7-4.8 0.3-1.8 7.8 1 9.1 1.4z"/>
	<path id="Layer" class="s4" d="m688.8 159.3c-1.9-0.8-8.4-2.4-9.3-4.2-0.4-1 2.7-8.5 2.3-8.6l17.7 2.4c3.7 0.5 7.6 1 11 2.7l0.1 11.9q0 0.2 0 0.4 0 0.1-0.1 0.3 0 0.2-0.1 0.3-0.1 0.2-0.2 0.3-0.1 0.1-0.3 0.2-0.1 0.1-0.2 0.1-0.2 0.1-0.3 0.1-0.2 0-0.3 0c-7.3 0.2-13.9-3-20.3-5.9z"/>
	<path id="Layer" class="s4" d="m658.9 150.5q2.5-0.6 5-1.4 2.5-0.8 4.9-1.8 2.4-1 4.8-2.1c3.3-1.7 4.9-3.6 8.2-1.1q0.8 0.7 1.6 1.5 0.7 0.8 1.4 1.6 0.6 0.9 1.2 1.7 0.6 0.9 1.2 1.9c1.2 1.9 2.4 4.1 1.8 6.3q-0.2 0.6-0.5 1.1-0.4 0.6-0.8 1-0.5 0.5-1.1 0.8-0.5 0.3-1.1 0.5-0.6 0.2-1.3 0.4-0.6 0.1-1.2 0.2-0.6 0.1-1.3 0.2-0.6 0.1-1.3 0.1-1.6 0.2-3.2 0.4-1.6 0.3-3.2 0.6-1.6 0.3-3.2 0.7-1.6 0.5-3.1 0.9-0.9 0.3-1.7 0.6-0.8 0.3-1.6 0.6-0.8 0.4-1.6 0.8-0.8 0.5-1.5 1-0.4 0.3-0.9 0.6-0.4 0.4-0.8 0.7-0.4 0.3-0.9 0.6-0.4 0.3-0.9 0.6c-2.6 1.5-5.9 1.4-8.9 1.2q-0.8 0.1-1.6-0.1-0.8-0.1-1.4-0.6-0.7-0.5-1.1-1.2-0.4-0.6-0.5-1.4c-1.3-4.1-2.5-9 0.2-12.3 2.2-2.6 5.9-3.1 9.2-3.6q2.6-0.4 5.2-1z"/>
	<path id="Layer" class="s3" d="m650.9 166.4q-0.1 1.2-0.5 2.2-0.3 1.1-0.9 2.1-0.6 0.9-1.4 1.7-0.8 0.8-1.8 1.4c-2.2 1.2-4.9 1.2-7.4 1.2q-2.5 0-5 0.2-2.5 0.1-5.1 0.4-2.5 0.3-5 0.6-2.4 0.4-4.9 0.9c-3.3 0.7-6.9 1.5-9.8-0.1q-0.9-0.6-1.6-1.3-0.7-0.7-1.3-1.6-0.5-0.9-0.9-1.9-0.3-0.9-0.4-2-0.1-1-0.1-2 0-1 0-2.1 0.1-1 0.2-2 0.2-1 0.4-2.1l0.9-5.3c0.4-2.5 0.8-5.1 2.5-7q0.7-0.8 1.5-1.3 0.8-0.6 1.8-1 0.9-0.4 1.9-0.5 1-0.2 2-0.2 1 0.1 2 0.2 1 0.1 2 0.3 1 0.2 2 0.5 0.9 0.2 1.9 0.6l21.1 6.2c4.8 1.4 6.3 7.4 5.9 11.9z"/>
	<path id="Layer" class="s3" d="m717.4 149.1c2.7-0.5 5.1-2.1 7.8-3 3.7-1.3 7.7-1.3 11.6-1.3q0.5 0 1.1 0 0.5 0 1 0.1 0.6 0.1 1.1 0.3 0.5 0.2 0.9 0.5c1.8 1.1 2.2 3.4 2.5 5.5l1.8 12.3q0.2 0.9 0.3 1.8 0.1 0.9 0.1 1.7 0 0.9-0.1 1.8 0 0.9-0.2 1.8c-0.5 2.2-2.1 4.5-4.3 5.1-2.8 0.7-5.5-1.1-8.1-2.3-6.5-2.9-14.1-2.1-20.9-4.3q-0.5-0.1-1-0.3-0.4-0.2-0.8-0.5-0.4-0.3-0.8-0.6-0.3-0.4-0.6-0.8-0.1-0.3-0.1-0.5-0.1-0.3-0.1-0.6 0-0.2 0-0.5 0-0.3 0-0.6c0.1-3.9-0.7-9.4 0.5-13.2 1-3.4 5.2-2.4 8.3-2.4z"/>
	<path id="Layer" class="s3" d="m762.1 89.6q1.6-0.4 3.2-0.7 1.6-0.2 3.3-0.3 1.6-0.1 3.2-0.1 1.6 0 3.3 0.2c3.4 0.4 7 1.3 9.5 3.7 3.1 2.9 4.1 7.5 4.1 11.7q0.1 3.1-0.4 6.2-0.5 3.1-1.5 6.1-1 3-2.5 5.7-1.5 2.8-3.5 5.2-0.4 0.7-1 1.2-0.5 0.6-1.1 1.2-0.5 0.5-1.1 1-0.6 0.5-1.3 1-0.7 0.4-1.4 0.8-0.7 0.4-1.5 0.8-0.7 0.3-1.4 0.6-0.8 0.4-1.6 0.6l-45.7 18c-12 4.8-24 9.5-36.6 12.7q-0.5 0.2-1.1 0.2-0.6 0.1-1.1-0.1-0.5-0.2-1-0.6-0.4-0.4-0.6-0.9-1.5-2.2-2.9-4.4-1.4-2.2-2.6-4.5-1.3-2.3-2.4-4.7-1.1-2.3-2.1-4.7-0.2-0.3-0.3-0.6 0-0.3 0-0.6 0.1-0.2 0.3-0.5 0.2-0.2 0.5-0.3l32.3-18.6q0.9-0.4 1.8-0.9 0.8-0.6 1.7-1.1 0.8-0.6 1.6-1.2 0.8-0.6 1.5-1.3 0.5-0.5 1-1 0.5-0.6 0.9-1.2 0.4-0.6 0.8-1.2 0.4-0.6 0.7-1.3c0.6-1.4 0.7-4.7 1.6-5.7 0.8-1 3.7-1.1 5-1.5q0.7-0.2 1.4-0.5 0.7-0.2 1.4-0.5 0.6-0.2 1.3-0.5 0.7-0.3 1.4-0.6c7.2-3.2 13.6-7.9 20.6-11.7q1.4-0.8 2.9-1.6 1.5-0.7 3.1-1.4 1.5-0.6 3.1-1.1 1.6-0.6 3.2-1z"/>
	<path id="Layer" class="s2" d="m749.9 100c3 0.9-1.5 3.3-2.5 4.1-4.1 3.2-8.3 6.4-13 8.7-4.6 2.3-37.3 25.2-42.5 24.3 0.5-2.3 31.8-19.9 33.7-21.4 5.5-4.3 12.7-8.1 18.2-12.3 1.3-0.8 4.4-4 6.1-3.4z"/>
	<path id="Layer" class="s5" d="m708.5-31.9q1.3 0.6 2.4 1.7 1 1 1.6 2.4 0.6 1.3 0.6 2.8v61.9q0 1.5-0.6 2.9-0.6 1.4-1.6 2.4-1.1 1.1-2.4 1.6-1.4 0.6-2.9 0.6h-48.7q-1.5 0-2.9-0.6-1.4-0.5-2.4-1.6-1.1-1-1.6-2.4-0.6-1.4-0.6-2.9v-45.1h-0.5v-3.6h0.5v-4.3h-0.5v-6.1h0.5v-2.8q0-1.5 0.6-2.8 0.5-1.4 1.6-2.4 1-1.1 2.4-1.7 1.4-0.5 2.9-0.5h48.7q1.5 0 2.9 0.5z"/>
	<path id="Layer" class="s3" d="m713.3-90.1l1.2 23-28.8 0.5-3-19.4-4.7 18.3-8.1 0.3v-11.3l-4.9 11.5-17.6 0.6 7.1-31.2 34.1-5.2 24.7 12.9z"/>
	<path id="Layer" class="s4" d="m626.5 61.8c3.4-7.1 10.4-12 12.6-19.9 1-3.7 0.9-7.7 1.4-11.5q0.4-2.9 1.2-5.7 0.9-2.8 2.2-5.4 1.3-2.7 3-5 1.8-2.4 3.9-4.5c2.2-2.1 5.1-4.1 8.2-3.8 3.7 0.4 6.4 4.2 6.8 8 0.3 3.7-1.2 7.4-2.9 10.8-2.6 5-6.2 10.1-11.6 11.7q-0.4 0-0.8 0.2-0.3 0.1-0.7 0.2-0.3 0.2-0.6 0.4-0.3 0.2-0.6 0.5-0.1 0.3-0.2 0.6-0.2 0.3-0.2 0.6-0.1 0.3-0.1 0.6 0 0.3 0 0.6c0 4 0.1 7.9 0.5 11.9 0.5 5.4 1.6 10.8 2 16.2 0.3 5.5-0.3 11.1-2.9 15.9q-0.5 0.9-1.1 1.7-0.7 0.8-1.4 1.6-0.7 0.7-1.5 1.3-0.9 0.6-1.8 1.1-0.9 0.5-1.9 0.8-1 0.2-2 0.2-1 0.1-2-0.1-1.1-0.2-2-0.7-0.7-0.4-1.4-0.9-0.6-0.5-1.2-1.1-0.6-0.5-1.1-1.2-0.5-0.7-0.9-1.4c-4.6-6.9-6.8-15.8-2.9-23.7z"/>
	<path id="Layer" class="s4" d="m731.7 55.2q-0.6 1.4-1.5 2.7-0.8 1.2-1.9 2.2-1.1 1.1-2.4 1.9-1.2 0.8-2.6 1.3-0.9 0.4-1.8 0.6-0.9 0.2-1.9 0.2-0.9 0.1-1.8 0-0.9-0.1-1.8-0.3-0.9-0.3-1.8-0.7-0.8-0.5-1.5-1.1-0.7-0.6-1.2-1.4-0.5-0.8-0.9-1.6-0.1-0.5-0.2-0.9-0.1-0.4-0.2-0.9-0.1-0.4-0.1-0.9-0.1-0.5-0.1-0.9c-0.3-5.4-0.2-10.9 1.7-15.9 0.8-1.9 1.8-3.7 2.4-5.7q0.2-0.9 0.4-1.7 0.1-0.9 0.2-1.8 0.2-0.8 0.2-1.7 0.1-0.9 0.1-1.8l0.6-14.6q0-0.4 0.1-0.8 0-0.4-0.1-0.8 0-0.4-0.1-0.8 0-0.4-0.1-0.7c-0.6-2.2-2.6-3.5-4.4-4.8-4.4-3-8.7-6.6-10.8-11.5q-0.3-0.5-0.5-1.1-0.2-0.6-0.3-1.2-0.1-0.6-0.1-1.2 0-0.6 0.1-1.2c0.6-2.9 3.5-4.8 6.4-5.4 1.9-0.4 3.9-0.5 5.8-0.1 1.9 0.4 3.7 1.1 5.3 2.2 1.6 1.1 3 2.5 4 4.1 1.1 1.6 1.8 3.4 2.1 5.3 0.3 1.7 0.3 3.4 0.5 5 0.3 3.6 1.4 7 2.1 10.4 1.8 8.6 0.9 17.4 2.6 26 1.4 7.1 6.8 11.8 3.5 19.6z"/>
	<circle id="Layer" class="s1" cx="681.9" cy="-5.7" r="6.1"/>
	<circle id="Layer" class="s3" cx="18" cy="196" r="18"/>
	<path id="Layer" class="s6" d="m83.4 249.5l0.4 0.6 11.5 15.6-37.5 1.8-1.7-21.2 18.2-5.6 9.1 8.8z"/>
	<circle id="Layer" class="s6" cx="63.5" cy="220.2" r="29.2"/>
	<path id="Layer" class="s3" d="m244.6 286.9c0 0 35.8 61.6 44.3 70.8q1.5 1.7 3.1 3.4 1.6 1.7 3.2 3.3 1.6 1.6 3.3 3.1 1.6 1.6 3.3 3.1c1.2 1-4 13.3-10.4 12.8q-1.3 0-2.7-0.2-1.3-0.2-2.6-0.6-1.4-0.3-2.7-0.7-1.2-0.5-2.5-1c-0.8-0.4-2.8-7.4-7.8-10.7-5-3.2-45.6-43.2-44.6-55.9 0.9-12.8 16.1-27.4 16.1-27.4z"/>
	<path id="Layer" class="s3" d="m152.8 348.4l46.3-7.3c0 0 12-7.1 38.1-5.6 26.1 1.5 15.6 21.2 15.6 21.2 0 0-27.3 52.5-33.1 57.5-5.7 5.1-25.3 32.9-25.3 32.9l-5.1 3.7-13.6-14.9c0 0 0.7-1.4 3.9-2.9 3.2-1.5 22.9-32.8 23.7-38.1 0.7-4.6 8.3-21.6 8.3-21.6l-4.5 3.3c-51.9 27.8-90.1-1.8-90.1-1.8z"/>
	<path id="Layer" class="s3" d="m302.3 367.7l19.3 13.4c0 0 24.6 7.7 9.5 12.8-15.2 5.2-55.2 7-56.1-0.1-0.9-7 1.5-18.2 3.5-17.6 2 0.6 15.9 4.2 23.8-8.5z"/>
	<path id="Layer" class="s3" d="m196.1 442.5l3.6 19.7c0 0 10.1 19.4-2.1 13.4-12.2-6-37.3-29-33.6-33.8 3.7-4.8 11.9-10 12.7-8.4 0.8 1.5 7 12 19.4 9.1z"/>
	<path id="Layer" class="s1" d="m159.2 354.9c0 0-25.9 30.3-41.7 22.9-15.7-7.3-80.2-92.6-72.9-108.4 7.4-15.7 9.9-12.4 9.9-12.4l33.3 3.1-9.6-15.4c0 0 4.5-3.3 8.7 1.4 4.3 4.6 21.4 16.1 27.4 32.4 5.9 16.3 23.4 15.5 23.4 15.5z"/>
	<path id="Layer" class="s0" d="m264.1 292.4l-45 47.8-40.3-71.2 38.3-46.3 47 69.7z"/>
	<path id="Layer" class="s1" d="m260.7 291.9l-40.7 42-36.8-64.7 33.8-42.6 43.7 65.3z"/>
	<path id="Layer" class="s7" d="m216.9 338.3l2.2 1.9-1.4 2.7-63 18.8-0.6-2.2 2.9-3 59.9-18.2z"/>
	<path id="Layer" class="s5" d="m219.6 339.8l-65.1 20.3-39.8-75 64.1-16.1 40.8 70.7z"/>
	<path id="Layer" class="s0" d="m214.7 329.6l-2.8 2-31-53.9 3.2-1.5 30.6 53.4z"/>
	<path id="Layer" class="s0" d="m208.3 332.6l-27.5 8.2-31.3-55.4 27.2-6.3 31.6 53.5z"/>
	<path id="Layer" class="s6" d="m130.7 291.5l5.7-1.7c0 0 31.8-3.6 32.3 6.4 0.4 10-36.6 5.4-36.6 5.4l-4.9-6.7z"/>
	<path id="Layer" class="s6" d="m151.5 324.4l4-3.8c0 0 21.2-12.2 28.1-5.2 6.9 7-17.1 17.8-17.1 17.8l-7.9 3.2z"/>
	<path id="Layer" class="s1" d="m151.5 320.9c0 0 12.9 12.9 10 16-3 3-51.2 42.8-63.2 30.1-12-12.8-70.2-76.8-47.6-82.2 22.7-5.5 28.7 7.3 28.7 7.3l30 51.2z"/>
	<path id="Layer" class="s1" d="m112.8 281.8l21.2 7.2-0.3 15.3-22.5-2.4 1.6-20.1z"/>
	<path id="Layer" class="s8" d="m131.9 328.9l-22.9 13.4-26.1-40.2 25.2 33.1 23.8-6.3z"/>
	<circle id="Layer" class="s3" cx="50.7" cy="211.7" r="34.7"/>
	<path id="Layer" class="s1" d="m238.3 295.4l-24.3-35.5 10.3-12.8 25.3 36.6-11.3 11.7z"/>
	<path id="Layer" class="s9" d="m237.6 309.7l-37-53.8 1.8-2.2 36.9 53.9-1.7 2.1z"/>
	<path id="Layer" class="s9" d="m232.8 314.9l-37-53.7 1.9-2.3 36.8 54-1.7 2z"/>
	<path id="Layer" class="s9" d="m228.8 318.8l-37-53.8 1.8-2.2 36.8 53.9-1.6 2.1z"/>
	<path id="Layer" class="s3" d="m66.1 188.5h10.8c2.6 0 5.3 0.6 7.8 1.6 2.5 1 4.7 2.5 6.7 4.4 1.9 2 3.4 4.2 4.4 6.7 1 2.5 1.6 5.2 1.6 7.8h-31.3z"/>
</svg>