<svg version="1.2" xmlns="http://www.w3.org/2000/svg" viewBox="0 0 599 520" width="599" height="520">
	<title>lockGuy</title>
	<style>
		.s0 { fill: #e6e6e6 } 
		.s1 { fill: #ffffff } 
		.s2 { opacity: .2;fill: #a0616a } 
		.s3 { fill: #2f2e41 } 
		.s4 { fill: #a0616a } 
		.s5 { fill: #3f3d56 } 
		.s6 { fill: #cccccc } 
	</style>
	<path id="Path_1321-440" class="s0" d="m361.2 183.7h-2.5v256.6c0 5.2-1 10.3-3 15.1-2 4.8-4.9 9.1-8.5 12.8-3.7 3.6-8 6.5-12.8 8.5-4.8 2-9.9 3-15.1 3h-144c-5.2 0-10.3-1-15.1-3-4.7-2-9.1-4.9-12.7-8.5-3.7-3.7-6.6-8-8.6-12.8-1.9-4.8-3-9.9-3-15.1v-373c0-5.1 1.1-10.2 3-15 2-4.8 4.9-9.1 8.6-12.8 3.6-3.6 8-6.5 12.7-8.5 4.8-2 9.9-3 15.1-3h144c5.2 0 10.3 1 15.1 3 4.8 2 9.1 4.9 12.8 8.5 3.6 3.7 6.5 8 8.5 12.8 2 4.8 3 9.9 3 15v68h2.5z"/>
	<path id="Path_1322-441" class="s1" d="m332.2 40.5c3.5 1.4 6.8 3.6 9.5 6.3 2.7 2.8 4.9 6 6.4 9.6 1.4 3.5 2.2 7.4 2.2 11.2v372.5c0 3.8-0.8 7.6-2.2 11.2-1.5 3.6-3.7 6.8-6.4 9.5-2.7 2.8-6 4.9-9.5 6.4-3.6 1.5-7.4 2.2-11.3 2.2h-144.7c-3.9 0-7.7-0.7-11.3-2.2-3.5-1.5-6.8-3.6-9.5-6.4-2.7-2.7-4.9-5.9-6.4-9.5-1.4-3.6-2.2-7.4-2.2-11.2v-372.5c0-3.8 0.8-7.7 2.2-11.2 1.5-3.6 3.7-6.8 6.4-9.6 2.7-2.7 6-4.8 9.5-6.3 3.6-1.5 7.4-2.3 11.3-2.3h17.5c-0.8 2.2-1.2 4.5-0.9 6.7 0.2 2.3 1 4.5 2.3 6.4 1.3 1.9 3 3.5 5 4.5 2 1.1 4.3 1.7 6.6 1.7h82.5c2.3 0 4.5-0.6 6.6-1.7 2-1 3.7-2.6 5-4.5 1.3-1.9 2-4.1 2.3-6.4 0.2-2.2-0.1-4.5-1-6.7h18.8c3.9 0 7.7 0.8 11.3 2.3z"/>
	<path id="Layer" class="s2" d="m416.9 506.5h-11.1l-5.4-43h16.5v43z"/>
	<path id="Layer" class="s3" d="m417.3 518.2h-34.3v-0.5c0-1.7 0.3-3.4 1-5.1 0.7-1.6 1.7-3.1 2.9-4.3 1.3-1.2 2.7-2.2 4.3-2.9 1.7-0.7 3.4-1 5.2-1l6.2-4.8 11.7 4.8h3z"/>
	<path id="Layer" class="s4" d="m495.8 506.5v-43h16.5l-5.3 43h-11.2z"/>
	<path id="Layer" class="s3" d="m495.4 504.4h3l11.7-4.8 6.3 4.8c1.7 0 3.5 0.3 5.1 1 1.6 0.7 3.1 1.7 4.3 2.9 1.3 1.2 2.3 2.7 2.9 4.3 0.7 1.7 1 3.4 1 5.1v0.5h-34.3z"/>
	<path id="Layer" class="s3" d="m400 431.9c0.1-2.5 1.4-16 1.4-16l3.2-28.8 5.5-76.4 0.4-5 28.9-5.5 19.8-9.5 23.6 7.5 18.3 6.9c0 0 0 2.9 0.2 6.5 0.1 4.6 0.5 10.3 1.3 11.8 1.3 2.6 0.9 16.7 0.9 16.7 0 0 1.3 28.6 3 31.8 1.6 3.1 1.9 9.6 1.5 10.9-0.5 1.3 1.6 35.7 1.6 35.7 0 0 5.5 60.8 2 70-3.4 9.2-16.4 3.2-16.4 3.2 0 0 0.6-2.5-3.1-3.7-3.8-1.1-15.3-87.3-15.3-87.3 0 0-2.1-17.7-4.1-22.8-1.9-5-3.7-19.3-3.7-19.3 0 0-12.1-23.5-12.3-28.8 0 0-1.6-4.9-3.1 0.5-1.5 5.4-5.9 18.3-5.9 18.3l-4.3 15.9-5.1 23.7-3.2 20c0 0-4.9 26.5-5.7 27.6-0.8 1.2 0 25.4 0 25.4 0 0-3.8 20.6-9.2 24.2-5.4 3.6-19.6 0.1-19.6 0.1 0 0-0.8-51.1-0.6-53.6z"/>
	<path id="Layer" class="s3" d="m412.3 236.1l-1-4.7 0.5-51-3.2 0.7 1.6-3.9 12.3-2.8 10.3-2.9 12.2-11.6 0.4 9.7 16 2.9 3.8-12.9 11.5 9.1 24.3 8.5-8.2 54.1v18.2l3.1 8.6v4.5l10.9 68-42.7 10.4-9.8-15.6-12.4 15.6-36.9-14 6.7-53.3 2.6-5.1-3.5-3.6 8-9.5-6.5-19.4z"/>
	<path id="Layer" class="s4" d="m403.5 316.4c-1.2 3.3-4.4 5.4-7.8 5.4-3.5 0-6.7-2.1-7.9-5.4-1.3-3.3-0.4-7 2.2-9.3-0.1-1.3-2.1-50.4 0.2-60.2 2.3-9.9 1.6-27.6 1.6-27.6l17.3 3.1-1.6 24.7-6.2 60c2.6 2.3 3.5 6 2.2 9.3z"/>
	<path id="Layer" class="s3" d="m383.2 256.6q-0.3-1.5 0-3.1 0.2-1.5 0.9-3 0.8-1.4 1.9-2.4c0.4-0.3 0.6-0.6 0.6-0.9-0.2-16.5 6.8-46.7 15.9-59.2 2.8-3.8 4.5-7.6 6.9-10.3q0.2-0.2 0.3-0.3l16.7-3-4.5 41.9-6.5 13.9-0.2 1.2-4.3 22.6-2.3 2.4-1.9 7.8-1-0.2-16.5-3.5-4.8-0.9q-0.8-1.4-1.2-3z"/>
	<path id="Layer" class="s4" d="m509.1 307.1l-6.2-60-1.6-24.7 17.3-3.1c0 0-0.7 17.7 1.6 27.6 2.2 9.8 0.3 58.9 0.2 60.2 2.6 2.3 3.5 6 2.2 9.3-1.2 3.3-4.4 5.4-7.9 5.4-3.5 0-6.6-2.1-7.8-5.4-1.3-3.3-0.4-7 2.2-9.3z"/>
	<path id="Layer" class="s3" d="m526 259.6l-4.8 0.9-16.5 3.5-1 0.2-1.9-7.8-2.3-2.4-4.3-22.6-0.2-1.2-6.5-13.9 1.4-41.9 10.8 3q0.1 0.1 0.3 0.3c2.4 2.7 4.1 6.5 6.9 10.3 9.1 12.5 16.1 42.7 15.9 59.2 0 0.3 0.2 0.6 0.6 0.9q1.1 1 1.9 2.4 0.7 1.5 0.9 3 0.3 1.6 0 3.1-0.4 1.6-1.2 3z"/>
	<path id="Layer" class="s5" d="m437.1 180.6l7.9-20.7 20.2-0.3 6.6 21 24 134.1c0 0-73.5 20.5-72.8-4.1 0.8-25.9 4.4-60.3 4.4-60.3z"/>
	<circle id="Layer" class="s4" cx="454.6" cy="130.4" r="23.7"/>
	<path id="Layer" class="s3" d="m429.5 113.2c3.9-4.2 8.7-11.9 23.3-15.1 18.1-4 26.7 12.3 22.1 12.6 13.3 4.1 4.8 31.6 0.9 29.3q0 0 0 0 0 0 0 0 0 0 0 0 0 0-0.1-0.1-1.5-1.1-2.8-2.5-1.3-1.4-2.2-3.1-1-1.6-1.6-3.5-0.6-1.8-0.9-3.7l-0.7-6.5c-0.1 5.3-5.5 6-11.1 4.1q0.3-0.9 0.8-1.7 0.4-0.8 1.1-1.4 0.6-0.6 1.4-1.1 0.8-0.4 1.7-0.7-1.5 1.3-3.1 2.4-1.6 1-3.4 1.8-1.8 0.8-3.7 1.3-1.9 0.4-3.8 0.6 0.2-1 0.6-1.9 0.4-1 1-1.8 0.6-0.8 1.4-1.5 0.7-0.7 1.6-1.2l-0.2-0.2q-0.8 0.7-1.7 1.3-0.9 0.6-1.8 1.1-0.9 0.6-1.9 1-0.9 0.4-1.9 0.8c-3.1 0.9-6.8 0.4-8.8-2q-0.3-0.3-0.4-0.5-0.2-0.3-0.4-0.6-0.1-0.3-0.3-0.6-0.1-0.3-0.2-0.6c0.5 4.2-2.4 9-4.6 8.2-1.8-0.3-2.8-11.4-0.3-14.2z"/>
	<path id="Layer" class="s6" d="m598.4 518.2q0 0.2-0.1 0.4-0.1 0.3-0.3 0.4-0.1 0.2-0.4 0.3-0.2 0.1-0.4 0.1h-280.3c-0.3 0-0.6-0.2-0.8-0.4-0.3-0.2-0.4-0.5-0.4-0.8 0-0.3 0.1-0.6 0.4-0.9 0.2-0.2 0.5-0.3 0.8-0.3h280.3q0.2 0 0.4 0.1 0.3 0.1 0.4 0.2 0.2 0.2 0.3 0.4 0.1 0.2 0.1 0.5z"/>
	<circle id="Layer 1" class="s5" cx="186" cy="321" r="11"/>
	<circle id="Layer 1 copy" class="s5" cx="226" cy="321" r="11"/>
	<circle id="Layer 1 copy 2" class="s5" cx="266" cy="321" r="11"/>
	<circle id="Layer 1 copy 4" class="s5" cx="306" cy="321" r="11"/>
	<g id="Folder 1">
		<circle id="Layer" class="s5" cx="248.9" cy="182.1" r="65.9"/>
		<circle id="Layer" class="s5" cx="248.8" cy="195.7" r="9.4"/>
		<circle id="Layer" class="s5" cx="248.8" cy="195.7" r="4.3"/>
		<path id="Layer" fill-rule="evenodd" class="s1" d="m266.3 216.6h-34.8c-1.7 0-3.4-0.3-5-0.9-1.5-0.7-3-1.7-4.2-2.9-1.2-1.2-2.1-2.6-2.8-4.2-0.6-1.5-1-3.2-1-4.9v-16c0-1.7 0.4-3.4 1-4.9 0.7-1.6 1.6-3 2.8-4.3 1.2-1.2 2.7-2.1 4.2-2.8 1.6-0.6 3.3-1 5-1h34.8c1.7 0 3.4 0.4 4.9 1 1.6 0.7 3 1.6 4.2 2.8 1.2 1.3 2.2 2.7 2.9 4.3 0.6 1.5 0.9 3.2 0.9 4.9v16c0 1.7-0.3 3.4-0.9 4.9-0.7 1.6-1.7 3-2.9 4.2-1.2 1.2-2.6 2.2-4.2 2.9-1.5 0.6-3.2 0.9-4.9 0.9zm-34.8-40.5c-1.5 0-3 0.3-4.4 0.9-1.5 0.6-2.7 1.4-3.8 2.5-1.1 1.1-1.9 2.4-2.5 3.8-0.6 1.4-0.9 2.9-0.9 4.4v16c0 1.5 0.3 3 0.9 4.4 0.6 1.4 1.4 2.7 2.5 3.8 1.1 1.1 2.3 1.9 3.8 2.5 1.4 0.6 2.9 0.9 4.4 0.9h34.8c1.5 0 3-0.3 4.4-0.9 1.4-0.6 2.7-1.4 3.8-2.5 1.1-1.1 1.9-2.4 2.5-3.8 0.6-1.4 0.9-2.9 0.9-4.4v-16c0-1.5-0.3-3-0.9-4.4-0.6-1.4-1.4-2.7-2.5-3.8-1.1-1.1-2.4-1.9-3.8-2.5-1.4-0.6-2.9-0.9-4.4-0.9z"/>
		<path id="Layer" class="s5" d="m229.4 208h30.9c1.6 0 3.2-0.3 4.7-0.9 1.4-0.6 2.8-1.5 3.9-2.7 1.2-1.1 2.1-2.5 2.7-3.9 0.6-1.5 0.9-3.1 0.9-4.7v-13.3q0-0.6-0.1-1.1 0-0.6-0.1-1.1-0.1-0.6-0.3-1.1-0.1-0.6-0.3-1.1 1.1 0.9 2 2 0.9 1.1 1.6 2.3 0.6 1.3 0.9 2.7 0.3 1.3 0.3 2.7v13.4c0 1.6-0.3 3.2-0.9 4.7-0.6 1.4-1.5 2.8-2.6 3.9-1.2 1.1-2.5 2-4 2.7-1.5 0.6-3.1 0.9-4.7 0.9h-30.8q-1.9 0-3.6-0.6-1.8-0.5-3.3-1.6-1.6-1-2.7-2.5-1.1-1.5-1.8-3.2 0.8 0.6 1.7 1.1 0.8 0.4 1.8 0.8 0.9 0.3 1.9 0.4 1 0.2 1.9 0.2z"/>
		<path id="Layer" fill-rule="evenodd" class="s1" d="m269.9 176.3h-42.1v-12.4c0-10 9.5-18.1 21.1-18.1 11.6 0 21 8.1 21 18.1zm-40.7-1.4h39.4v-11c0-9.2-8.9-16.7-19.7-16.7-10.9 0-19.7 7.5-19.7 16.7z"/>
		<path id="Layer" fill-rule="evenodd" class="s1" d="m259.7 171.6h-21.6q-0.7 0-1.4-0.3-0.7-0.3-1.2-0.8-0.5-0.5-0.8-1.2-0.2-0.7-0.3-1.4v-4.9c0-6.9 6.5-12.5 14.5-12.5 7.9 0 14.4 5.6 14.4 12.5v4.9q0 0.7-0.3 1.4-0.2 0.7-0.8 1.2-0.5 0.5-1.1 0.8-0.7 0.3-1.4 0.3zm-10.8-19.7c-7.2 0-13.1 4.9-13.1 11.1v4.9q0 0.5 0.2 0.9 0.2 0.4 0.5 0.7 0.3 0.3 0.7 0.5 0.4 0.2 0.9 0.2h21.6q0.4 0 0.8-0.2 0.5-0.2 0.8-0.5 0.3-0.3 0.5-0.7 0.2-0.4 0.2-0.9v-4.9c0-6.2-5.9-11.1-13.1-11.1z"/>
	</g>
</svg>