<svg version="1.2" xmlns="http://www.w3.org/2000/svg" viewBox="0 0 928 431" width="928" height="431">
	<title>undraw_our_neighborhood_ya1h (1)-svg</title>
	<style>
		.s0 { fill: #f2f2f2 } 
		.s1 { fill: #ffffff } 
		.s2 { fill: #e6e6e6 } 
		.s3 { fill: #3f3d56 } 
		.s4 { fill: #6b6887 } 
		.s5 { fill: #ffb6b6 } 
		.s6 { fill: #2f2e41 } 
		.s7 { fill: #feb8b8 } 
		.s8 { opacity: .2;fill: #000000 } 
		.s9 { fill: #a0616a } 
	</style>
	<path id="Layer" class="s0" d="m747.7 432.6h-353.6v-207.5l-1.6-1.1 57.4-55.9c7.1-7 15-13.3 23.3-18.8 8.4-5.5 17.3-10.2 26.6-14 9.2-3.9 18.8-6.8 28.7-8.8 9.8-1.9 19.8-3 29.8-3l105.5-1 0.2 0.2 83.9 99.8-0.2 2.8z"/>
	<path id="Layer" class="s1" d="m460.7 161.6h211.5v2h-211.5z"/>
	<path id="Layer" class="s1" d="m439.7 182.6h211.5v2h-211.5z"/>
	<path id="a2154f00-ed14-462d-b588-8472cd78aad3" class="s1" d="m735.7 320.1h38.4v34h-38.4z"/>
	<path id="eab3f4c7-6f92-4328-96cc-d5b6a118827f" class="s1" d="m735.7 261.3h38.4v33.5h-38.4z"/>
	<path id="Layer" class="s0" d="m690.2 125.9h34.5v119.3h-34.5z"/>
	<path id="Layer" class="s2" d="m747.7 432.6h-189.2v-137.5c0-7.9 0.7-15.8 2-23.5 1.4-7.8 3.5-15.4 6.2-22.8 2.7-7.4 6.1-14.5 10.1-21.3 4-6.8 8.5-13.2 13.6-19.2l73.3-85.9 84 100z"/>
	<path id="a6590c42-447c-4063-b06f-22960ea9e1c6" class="s1" d="m647.3 329.1h38.4v34h-38.4z"/>
	<path id="a578d772-16a5-40c1-af18-cd3a687ecce1" class="s1" d="m647.3 270.3h38.4v33.5h-38.4z"/>
	<path id="ed02d0f4-f24a-4a19-b524-9521b83f0535" class="s1" d="m463.7 320.1h38.4v34h-38.4z"/>
	<path id="b847f630-38c4-41e6-9edb-729b8a62aeb5" class="s1" d="m463.7 261.3h38.4v33.5h-38.4z"/>
	<path id="Layer" class="s0" d="m407.1 60.4h41.9v144.8h-41.9z"/>
	<path id="Layer" class="s0" d="m476.8 432.5h-428.9v-251.7l-1.9-1.3 0.4-0.4 78.4-76.3c7.2-7.1 15.1-13.4 23.5-19 8.5-5.6 17.4-10.3 26.8-14.2 9.4-3.8 19.1-6.8 29-8.8 9.9-2 20-3 30.1-3.1l140.9-1.3 0.1 0.2 101.9 121.2-0.3 3.3z"/>
	<path id="Layer" class="s2" d="m476.8 432.5h-229.4v-184.8c0-6.7 0.5-13.3 1.7-19.9 1.2-6.5 2.9-13 5.2-19.2 2.3-6.3 5.2-12.3 8.5-18 3.4-5.8 7.3-11.2 11.6-16.3l100.6-117.9 101.8 121.3z"/>
	<path id="ea84a9e5-6c52-4e5e-8073-8fad2571a91f" class="s1" d="m364 307.2h37.1v32.7h-37.1z"/>
	<path id="f19b6ec7-0e8c-4fff-907a-924d40e6f96c" class="s1" d="m364 250.2h37.1v32.7h-37.1z"/>
	<path id="acaff666-bc25-4fb5-a952-92ce00b7aba4" class="s1" d="m132.2 296.2h46.7v41.2h-46.7z"/>
	<path id="b161f5b0-b707-4bd0-97aa-6c4dd340fe66" class="s1" d="m132.2 224.8h46.7v40.6h-46.7z"/>
	<path id="bed8a224-40da-4f11-a19c-2b4f6eae74c1" class="s3" d="m0 431h927.8v2.3h-927.8z"/>
	<ellipse id="eaa25ba1-fb02-4ae1-bc1b-a61530bf454c" class="s3" cx="139.3" cy="321.2" rx="33.3" ry="67.8"/>
	<path id="b4bf8935-d3ff-4e35-bb4f-d79f2288d23a-56" class="s4" d="m142.3 432.2c-13.3-79.9-0.1-159.5 0-160.3l2.6 0.4c-0.1 0.8-13.2 80 0 159.5z"/>
	<path id="b9f9a211-6e99-401f-90e8-cf0ebb439f20" class="s4" d="m138.5 322.7l30-16.1 1.3 2.3-30.1 16.1z"/>
	<path id="e0f316f7-4b6f-4546-8015-4a3c859d357e" class="s4" d="m106.7 316.9l1.3-2.3 30 16.1-1.2 2.3z"/>
	<ellipse id="f9fb50b4-1b5d-416e-9e0d-266f30cba72e" class="s4" cx="58.7" cy="273.4" rx="48" ry="97.9"/>
	<path id="a800d1c2-f743-4d93-bec2-cff0f953733c-57" class="s3" d="m64.1 433.5c-19.2-115.1-0.2-229.9 0-231l1.9 0.3c-0.2 1.1-19.1 115.6 0 230.4z"/>
	<path id="fb01bfd3-0095-4a66-b946-3896d80fc39c" class="s3" d="m58 276.4l43.4-23.2 0.9 1.7-43.3 23.2z"/>
	<path id="b67993a5-f0ea-4993-bd83-fcb2f25516f5" class="s3" d="m12.2 266.5l1-1.7 43.3 23.2-0.9 1.7z"/>
	<path id="a58bbeb0-9bd3-48cd-81c7-bf267a60ca0e-58" class="s3" d="m663.5 77.8q0.8 0.8 1.5 1.7 0.7 0.9 1.2 1.9 0.6 1 1 2.1l-21.1-7.7c0 0 7-3.4 13.3-0.8 1.4-3.5 4.8-8 12.9-7.1l-10.5 8.4q0.9 0.7 1.7 1.5z"/>
	<path id="f9b938cf-521f-4b64-a4af-443f90f250ff-59" class="s3" d="m473.4 13q0.8 0.8 1.5 1.7 0.7 0.9 1.2 1.9 0.6 1 1 2.1l-21.1-7.7c0 0 7-3.5 13.3-0.8 1.4-3.5 4.8-8 12.9-7.1l-10.5 8.4q0.9 0.7 1.7 1.5z"/>
	<path id="a8da215e-7841-4236-9b2d-2b5040889003-60" class="s3" d="m738.2 28.7q0.8 0.8 1.5 1.7 0.6 0.9 1.2 1.9 0.5 1 0.9 2l-21-7.6c0 0 6.9-3.5 13.3-0.8 1.4-3.6 4.7-8 12.9-7.1l-10.5 8.4q0.9 0.7 1.7 1.5z"/>
	<path id="f0e6e0e6-42da-4f68-a4c7-39fa16634762-61" class="s3" d="m295.2 418.9c1.8 0.8 3.6 1.8 5 3.2 1.5 1.4 2.7 3 3.5 4.8 0.9 1.8 1.4 3.8 1.6 5.8h-52.5c0-3.3 0.9-6.6 2.7-9.4 1.8-2.8 4.4-4.9 7.4-6.3 3-1.3 6.4-1.8 9.7-1.3 3.2 0.6 6.3 2 8.8 4.2q0.9-0.5 1.8-0.9 1-0.4 2-0.6 1-0.3 2-0.5 1.1-0.1 2.1-0.1c2 0 4 0.4 5.9 1.1z"/>
	<path id="a1a48b26-c08c-4af6-a63a-aec9264485a6-62" class="s3" d="m568.3 418.9c1.9 0.8 3.6 1.8 5 3.2 1.5 1.4 2.7 3 3.6 4.8 0.8 1.8 1.3 3.8 1.5 5.8h-52.5c0-3.3 0.9-6.6 2.7-9.4 1.8-2.8 4.4-4.9 7.4-6.3 3.1-1.3 6.4-1.8 9.7-1.3 3.3 0.6 6.3 2 8.8 4.2q0.9-0.5 1.8-0.9 1-0.4 2-0.6 1-0.3 2.1-0.5 1-0.1 2-0.1c2 0 4 0.4 5.9 1.1z"/>
	<g id="b7f6eb98-a688-40b6-a6fe-b95f7faf89e9">
		<path id="a2b702d6-67ae-4451-8add-a2f537c8659d-63" class="s3" d="m427.9 408.8h-12.8v22.8h-2.4v-22.8h-45.3v22.8h-2.5v-22.8h-11.6v-2.5h74.6z"/>
		<path id="e92a1475-8072-45d0-b33d-944691a78c33" class="s3" d="m353.5 399.2h74.5v2.4h-74.5z"/>
		<path id="b6a0a497-0aca-42fa-836e-077aa391619e" class="s3" d="m353.5 393.1h74.5v2.4h-74.5z"/>
	</g>
	<ellipse id="fb6c0aeb-9c49-4f71-adc3-f096e0d8dfbf" class="s2" cx="873.8" cy="336.4" rx="29.1" ry="59.4"/>
	<path id="b1a6d698-dda0-490a-ac80-38ce87516ad9-64" class="s3" d="m869.4 433.3c11.6-69.6 0.1-139.1 0-139.8l1.2-0.2c0.1 0.7 11.6 70.4 0 140.2z"/>
	<path id="ec111ffd-238a-4858-990a-57023cafb3d8" class="s3" d="m847.4 325.1l0.5-1 26.3 14.1-0.5 1z"/>
	<path id="e635c501-1628-42d4-a3a5-c4826c51f25c" class="s3" d="m875.2 345.2l26.3-14.1 0.5 1.1-26.3 14.1z"/>
	<g id="e6d5674b-00e7-4467-bab6-ed987278fef8">
		<path id="e1ce62fd-b420-4db2-ab4c-e67ce8dd22d3-65" class="s1" d="m838.8 407.6q0 0 0 0 0 0 0 0 0.1 0.1 0.1 0.1 0 0 0 0 0 0.1 0 0.1 0 0-0.1 0 0 0 0 0-0.2 0.1-0.5 0.2-0.2 0-0.4 0-0.3 0-0.5-0.1-0.3 0-0.5-0.2c-0.1 0 0-0.3 0.1-0.2q0.2 0.1 0.4 0.2 0.2 0.1 0.5 0.1 0.2 0 0.4-0.1 0.2 0 0.4-0.1 0 0 0.1 0z"/>
		<path id="fb654e67-0d02-4c8d-bcee-f27f565fe02d-66" class="s5" d="m800 385.9c-0.6-0.1-1.2-0.5-1.6-1.1-0.4-0.5-0.6-1.2-0.6-1.8 0.1-0.7 0.4-1.3 0.9-1.8l1.2-24 5.9-0.2-3.1 24.5q0.4 0.4 0.5 1 0.2 0.6 0.1 1.2-0.2 0.6-0.5 1.1-0.4 0.5-0.9 0.8c-0.6 0.3-1.2 0.4-1.9 0.3z"/>
		<path id="a488bb03-142b-4649-b46b-ce040c2328f3-67" class="s5" d="m829.4 357l0.7 12.5-5.1 13.5-2.4-3.6 2.3-13.2-0.6-8.4z"/>
		<path id="f0ef5070-4018-49e8-960c-7187773c9309-68" class="s5" d="m822 395.6l0.7 32.2-2.8 0.5-5.9-33z"/>
		<path id="fb7c6aba-de42-4943-8375-93a8e608f158-69" class="s5" d="m812.1 395.6l-0.8 33.5h-2.8l-4.3-31.9z"/>
		<circle id="b6f1e84f-de40-4eb0-b986-5230eeabe2b6" class="s5" cx="812.3" cy="334.8" r="5.7"/>
		<path id="f5873d16-c2b8-4b32-b8ce-4dfe24df8d00-70" class="s6" d="m822.7 377.6l2.5 5.7-2.5 7.5v7.9h-9.2l-0.2-9.6-1.2 9.6h-9.4l-1.7-19.3 2.5-4.6z"/>
		<path id="b50d2378-3b60-4f71-817b-0ffe618fac58-71" class="s4" d="m818 342.4l0.9 1.6c2.4-0.4 8 3.5 8 3.5l-3.2 12.6-0.8 18.1-21.6 1.4 3.6-23.4-3.9-8.1c2.9-3.3 8.8-4.4 8.8-4.4l0.7-1.3z"/>
		<path id="b1c08a75-8ec9-4886-9316-db9a3786fe59-72" class="s4" d="m806.2 360.1l-6.7-1.1c-0.1-2 1.5-10.9 1.5-10.9l5.5 0.8z"/>
		<path id="b7e6bad9-42bd-4009-bf9c-01fa534afc33-73" class="s4" d="m824.3 348l2.6-0.5c0 0 1.1 3.2 2.8 10.9l-7 2.4z"/>
		<path id="e547f758-b125-48f0-a3f2-c593124eae11-74" class="s6" d="m811.8 431.2h-10v-0.1q0-0.8 0.3-1.5 0.3-0.7 0.8-1.3 0.6-0.5 1.3-0.8 0.7-0.3 1.5-0.3h6.1z"/>
		<path id="a5abfdf4-c3af-402b-ba0c-8bb282f8d7b3-75" class="s6" d="m823.9 429.7l-9.9 1.5v-0.1q-0.1-0.8 0-1.5 0.2-0.8 0.7-1.4 0.4-0.6 1.1-1 0.7-0.4 1.4-0.6l6.1-0.9z"/>
		<path id="bd2c52c0-fba3-4836-9bfb-70573bfe7e73-76" class="s6" d="m814.5 337.2q-0.1-0.1-0.3-0.1-0.2-0.1-0.3-0.1-0.2-0.1-0.4-0.1-0.1-0.1-0.3-0.1-0.6-0.1-1.1-0.4-0.4-0.4-0.8-0.9-0.3-0.4-0.4-1-0.1-0.6-0.1-1.1 0.1-0.1 0.1-0.2 0 0 0-0.1 0-0.1 0-0.2 0 0 0-0.1c0-0.4-0.5-0.7-1-0.8q-0.2 0-0.4-0.1-0.1 0-0.3 0-0.2 0-0.4-0.1-0.2 0-0.3 0-0.3-0.1-0.5-0.3-0.2-0.1-0.4-0.3-0.2-0.2-0.3-0.5-0.1-0.2-0.1-0.5-0.1-0.2 0-0.5 0-0.2 0-0.5 0.1-0.2 0.2-0.5 0.1-0.2 0.3-0.4l0.1 0.4q0.1 0 0.2-0.1 0.1-0.1 0.2-0.2 0-0.1 0.1-0.2 0.1-0.1 0.1-0.2 0.1 0 0.3 0.1 0.1 0 0.2 0.1 0.1 0.1 0.2 0.2 0.1 0.1 0.2 0.2c0.3 0.2 0.3-0.4 0.6-0.5q0.1 0 0.1 0 0.1 0 0.1 0 0.1 0 0.1 0 0 0.1 0.1 0.1 0.2 0 0.5 0.1 0.2 0 0.5 0 0.3 0 0.5-0.1 0.2 0 0.5-0.1 0.4-0.1 0.9-0.2 0.4 0 0.8 0 0.5 0 0.9 0 0.4 0.1 0.9 0.2 0.3 0 0.5 0.1 0.3 0.1 0.6 0.2 0.2 0.1 0.5 0.3 0.2 0.1 0.4 0.3 0.2 0.2 0.3 0.3 0.2 0.2 0.3 0.4 0.1 0.2 0.2 0.4 0.1 0.2 0.2 0.4 0.2 0.4 0.4 0.9 0.2 0.5 0.3 1 0.1 0.5 0.1 1.1 0 0.5 0 1-0.1 0.4-0.2 0.8-0.2 0.5-0.3 0.8-0.2 0.4-0.5 0.8-0.3 0.3-0.6 0.6c-0.4 0.5-1.9 2-2.6 1.8-1-0.4 0.3-1.6-0.9-2.1z"/>
	</g>
	<g id="f113d3c6-765b-418c-a680-f18597c55a1b">
		<path id="fc5ed3c1-c68d-40d2-b7a6-abe3b4a2a74d-77" class="s7" d="m740 383.6c-0.4-0.1-0.9-0.3-1.2-0.7-0.3-0.4-0.4-0.9-0.4-1.4 0.1-0.4 0.3-0.9 0.6-1.2l1.2-25.1 4.2-0.3-2.5 25.5q0.3 0.3 0.4 0.7 0.1 0.4 0 0.9 0 0.4-0.3 0.8-0.2 0.3-0.6 0.5c-0.4 0.3-0.9 0.4-1.4 0.3z"/>
		<path id="a008d3da-b54e-4923-9038-9867749ffee1-78" class="s6" d="m738.8 351.7q0-0.7 0.4-1.2 0.3-0.6 0.8-1 0.6-0.4 1.2-0.6 0.7-0.2 1.3-0.1 0.7 0.1 1.2 0.4 0.6 0.3 1 0.7 0.4 0.5 0.6 1.2 0.3 0.6 0.2 1.2l-0.5 11.4-0.9 4.3-4.7-0.4 0.2-5.2-1.1-8.4z"/>
		<path id="ebb1e42f-8de7-4654-9747-025b9834ff06-79" class="s7" d="m756.3 417.4h4.2l-1.4 10.9h-2.8z"/>
		<path id="a35d91d7-34c0-4dd3-9e8f-4f1bbf8a8f5c-80" class="s6" d="m755.6 427.4h5.6q0.7 0 1.3 0.2 0.7 0.3 1.2 0.8 0.5 0.5 0.7 1.2 0.3 0.6 0.3 1.3v0.1h-9.1z"/>
		<path id="a1f78e26-4946-4012-8d05-fc85d50d3a11-81" class="s7" d="m733 417.4h4.1l-1.3 10.9h-2.8z"/>
		<path id="e8271c9c-db88-4a38-868d-596fdbbe0842-82" class="s6" d="m732.2 427.4h5.6q0.7 0 1.4 0.2 0.6 0.3 1.1 0.8 0.5 0.5 0.8 1.2 0.3 0.6 0.3 1.3v0.1h-9.2z"/>
		<circle id="b88cef57-831c-4e73-93ef-4ce4c84855e9" class="s7" cx="744" cy="338.6" r="6.1"/>
		<path id="ba66fbbf-93e8-4cf1-ad4a-d3a9d01d0c08-83" class="s6" d="m748.4 347.3l3.9 5.4c3.2 3.2 1.9 8.1 1.9 8.1l0.2 6.6 2.9 13.6 4.6 41.2-8.2 1.3-7.2-31.4-5.2 31.5-12-1.2c0 0 8.5-29.6 8.5-37.9 0-8.3 4.5-17.2 4.5-17.2l-3.3-9.3q-0.4-1.3-0.5-2.7-0.2-1.3 0-2.6 0.2-1.4 0.7-2.6 0.5-1.3 1.3-2.4l4.2-0.4z"/>
		<path id="adc0a8ff-b80e-404d-9cbd-0bdc38dcadd7-84" class="s6" d="m751.1 336.4h-9v-3.9c2-0.8 3.9-1.4 5.1 0q0.8 0 1.5 0.3 0.7 0.3 1.2 0.9 0.6 0.5 0.9 1.2 0.3 0.8 0.3 1.5z"/>
		<path id="a9ea9b79-794e-43c8-9184-cfa6df2e5b1c-85" class="s6" d="m748.5 342.4c0 3.8-3.1 3.2-6.8 3.2l-1-0.8-0.4 0.8q-0.7 0-1.3 0l-1.3-2.9-0.5 2.8c-1.5-0.2-2.5-1-2.5-3.1 0-3.8 1.5-10.6 6.9-10.6 5.6 0 6.9 6.8 6.9 10.6z"/>
		<path id="af0349f9-456a-4dd2-a64e-6531d0c151a5-86" class="s8" d="m749.6 369.1l0.2-9.9 0.6-4.4 1.5 4.4z"/>
		<path id="Layer" class="s4" d="m739.2 367.3q-1 0-2-0.4-1-0.4-1.8-1.2-0.7-0.7-1.1-1.7-0.5-1-0.5-2.1v-10.1q0-1.1 0.5-2.1 0.4-1 1.1-1.7 0.8-0.8 1.8-1.2 1-0.4 2-0.4 1.5 0 2.8 0.6 1.3 0.5 2.4 1.5 1 1.1 1.5 2.4 0.6 1.3 0.6 2.8v6.3q0 1.5-0.6 2.8-0.5 1.3-1.5 2.4-1.1 1-2.4 1.5-1.3 0.6-2.8 0.6z"/>
		<path id="f944ffa0-7c6b-4400-915a-69234f51563c-87" class="s4" d="m750.8 359.8q0.5-0.6 0.8-1.3 0.4-0.6 0.6-1.4 0.3-0.7 0.4-1.4 0.1-0.8 0.1-1.6c0-4-2.4-7.3-5.3-7.3q-0.6 0-1.2 0.2-0.6 0.2-1.1 0.5-0.5 0.3-1 0.8-0.4 0.5-0.7 1l-0.4-0.3q0.3-0.6 0.8-1.1 0.4-0.5 1-0.9 0.6-0.4 1.3-0.6 0.6-0.2 1.3-0.2c3.2 0 5.8 3.6 5.8 7.9q0.1 0.9-0.1 1.7-0.1 0.8-0.3 1.5-0.3 0.8-0.7 1.5-0.4 0.7-0.9 1.4z"/>
		<path id="ec3de1bf-746d-4468-9eef-f7ee611e3754-88" class="s7" d="m747 384.7c-0.5 0-1-0.3-1.4-0.7-0.3-0.4-0.5-0.9-0.5-1.4 0-0.5 0.2-1 0.5-1.4l-0.2-27.6 4.7-0.5-1.3 28q0.3 0.3 0.5 0.8 0.1 0.4 0.1 0.9-0.1 0.5-0.3 0.9-0.2 0.4-0.6 0.7c-0.5 0.3-1 0.4-1.5 0.3z"/>
		<path id="f5efdb27-b8cb-453b-a7a0-ebd86690dd4e-89" class="s6" d="m743.7 349.9q0-0.7 0.4-1.4 0.3-0.6 0.8-1.1 0.6-0.5 1.3-0.7 0.7-0.3 1.4-0.2 0.7 0 1.4 0.3 0.6 0.3 1.1 0.8 0.5 0.6 0.7 1.2 0.3 0.7 0.3 1.4l0.1 12.5-0.7 4.7-5.2-0.1-0.1-5.7-1.7-9.2z"/>
	</g>
	<g id="f3a52820-5da4-4b42-9266-f78e9fe7018d">
		<path id="a893f891-f54b-45a9-863c-d8f504ba27e5-90" class="s3" d="m701 408.8h-12.8v22.8h-2.4v-22.8h-45.3v22.8h-2.4v-22.8h-11.7v-2.5h74.6z"/>
		<path id="acd566dc-6da0-4893-9936-737f20e2ae79" class="s3" d="m626.6 399.2h74.6v2.4h-74.6z"/>
		<path id="a718245b-7267-423b-9db7-7deabc7ded2f" class="s3" d="m626.6 393.1h74.6v2.4h-74.6z"/>
	</g>
	<circle id="f99f95d7-6e4c-45e5-9ca3-115f1183054f" class="s9" cx="416.2" cy="374.2" r="5.3"/>
	<g id="ada0ff63-34b6-473e-888e-14c468d60184">
		<path id="f6aff86a-449a-4efa-96e1-5e9aeb63600f-91" class="s9" d="m426.7 417.9h4l-1.3 10.5h-2.7z"/>
		<path id="be6cb877-ace5-48c6-bd02-c8097b1472ff-92" class="s6" d="m426 427.5h5.4q0.6 0 1.3 0.3 0.6 0.2 1.1 0.7 0.5 0.5 0.7 1.1 0.3 0.6 0.3 1.3v0.1h-8.8z"/>
		<path id="f72c38d0-548e-4cbc-be70-00a274c38ac9-93" class="s9" d="m416.2 422.8l-2.2 1.6-7.2-7.7 3.2-2.4z"/>
		<path id="f50cadf5-a7b6-4eb1-a003-daa0c7a8710f-94" class="s6" d="m418.3 424.5l-7.1 5.2-0.1-0.1q-0.4-0.5-0.6-1.2-0.1-0.7 0-1.3 0.1-0.7 0.4-1.3 0.4-0.6 1-1l4.3-3.1z"/>
		<path id="be113f8e-4433-4984-a5b5-4a984297f3c3-95" class="s4" d="m420.6 385.6l-2.2 8.5-0.9 5.7h-6.4l2.1-17.8q0.6-0.5 1.4-0.7 0.8-0.2 1.6-0.2 0.8 0 1.5 0.2 0.8 0.2 1.4 0.7z"/>
		<path id="afa107ec-0e1f-4b07-9537-fe3a9a5f8e8b-96" class="s6" d="m425.6 409.5l-11.6-3.7-5.4 4.3 5.8 8.9-3.1 4v-0.1c-0.4-0.4-9.3-10.5-9.3-13.4q0-0.8 0.1-1.5 0.1-0.7 0.2-1.4 0.1-0.8 0.3-1.5 0.2-0.7 0.4-1.4l2.9-4.1 4.1-1.2 13.5 1.9h0.1l5.5 3.3q0.4 0.3 0.7 0.7 0.3 0.3 0.6 0.7 0.2 0.4 0.4 0.9 0.2 0.4 0.2 0.9c0.2 2.1 0.7 19.1 0.7 19.3v0.1h-5.9z"/>
		<path id="b735e730-6705-4934-808d-0e6dc1de6035-97" class="s3" d="m418.3 405.3c-2-0.9-4.6-4.4-5-5-0.8 0.5-6.8 3.7-8.5 2.9q-0.3 0.1-0.6 0.3-0.2 0.2-0.4 0.4-0.2 0.2-0.4 0.5-0.1 0.3-0.2 0.6l-0.1 0.2-0.1-0.2c0 0-2.6-3.9 0.7-6.3q0.7-0.5 1.3-1 0.6-0.5 1.1-1.1 0.5-0.6 0.9-1.2 0.4-0.7 0.7-1.4l-1.6-8.8v-0.1c0.1-0.1 3.4-3.1 6.4-3.4l1.8-0.4 0.1 7v8.9c1.5-0.2 3.8-15.8 3.8-15.8l1.2 0.5c0.3 0.1 3.9 0.8 4.8 2.2h0.1l-3.3 8.7-0.9 1.5v1.8l5.5 4.8-0.1 0.1c-0.2 0.2-4.2 4.4-6.6 4.4q-0.1 0-0.2 0-0.1 0-0.1 0-0.1 0-0.2-0.1-0.1 0-0.1 0z"/>
		<path id="ade73258-5ca4-4173-8b1c-41e04f44844d-98" class="s9" d="m414.8 406.9q0.1-0.5 0.3-0.9 0.3-0.4 0.7-0.6 0.3-0.3 0.8-0.3 0.5-0.1 0.9 0l3.1-3.6 2.6 1.3-4.4 5.1c-0.1 0.5-0.5 0.9-0.9 1.1-0.5 0.2-1 0.3-1.5 0.2-0.5-0.2-1-0.5-1.2-0.9-0.3-0.4-0.5-0.9-0.4-1.4z"/>
		<path id="fb6336a6-3b5c-4476-975a-6834746d9cfa-99" class="s3" d="m417 403.8l4.8-6.5-1.2-6.4 1.9-7.2q0.2-0.1 0.4-0.2 0.2 0 0.5 0 0.2 0 0.4 0 0.2 0 0.4 0.1 0.1 0 0.2 0.1 0.1 0 0.2 0.1 0.1 0.1 0.1 0.2 0.1 0.1 0.1 0.2c0.5 1.2 1.6 13.3 1.7 13.8q0 0.5-0.1 0.9-0.1 0.4-0.2 0.9-0.1 0.4-0.2 0.8-0.1 0.4-0.2 0.8c-0.5 1-4.9 5.8-5 6l-0.1 0.1z"/>
		<path id="b93590be-0d48-4c9c-8edf-7b9cf6debf72-100" class="s6" d="m420.7 372.9c-1.7 2.2-4.8 1.8-7.2 1q0 0.6 0 1.3-0.1 0.7-0.3 1.3-0.1 0.6-0.4 1.2-0.3 0.6-0.7 1.2c0.3-1.3-1-1.5-1.8-2-0.3-0.4 0-0.9-0.1-1.4-1.4-1.6-2.3-2.8-0.6-4.7 1.1-1.4 2.3-3.2 4.3-2.8 1.6-1.8 4.2-1.4 5.9-0.1q0.3 0.2 0.6 0.5 0.3 0.2 0.5 0.5 0.3 0.2 0.6 0.5 0.2 0.2 0.4 0.5 0 0.4-0.1 0.8-0.1 0.3-0.3 0.7-0.1 0.3-0.3 0.6-0.2 0.4-0.4 0.7"/>
		<path id="b24fdcc1-dbae-4f5c-89cb-c8a774e1760c-101" class="s9" d="m416.3 409.9c-0.3 0.4-0.7 0.7-1.2 0.8-0.5 0.1-1 0.1-1.5-0.2-0.4-0.2-0.8-0.6-1-1.1l-4.3-5.1 2.6-1.3 3.1 3.7q0.4-0.2 0.9-0.1 0.4 0.1 0.8 0.3 0.4 0.3 0.7 0.7 0.2 0.4 0.3 0.8c0 0.5-0.1 1-0.4 1.5z"/>
		<path id="f543f9b6-75c6-481a-84a9-cd09bde9e30c-102" class="s3" d="m410.7 407.8c-0.2-0.2-6.6-5.1-7.4-6.5-0.7-1.4-0.5-5.7-0.5-5.9q0.2-1.1 0.4-2.3 0.2-1.1 0.5-2.2 0.3-1.2 0.6-2.3 0.3-1.1 0.6-2.2 0.2-0.5 0.5-0.9 0.4-0.4 0.9-0.6 0.4-0.2 1-0.2 0.5-0.1 1 0.1 0 0.1 0.1 0.1l-1 12.5 5.8 7.8-2.4 2.6z"/>
	</g>
	<path id="e743b151-a501-4802-bd45-1d20431e6e42-103" class="s0" d="m401.4 137.3v43.1h-37.7v-43.1h0.1l-0.2-0.3 10.9-20.7 18-0.4 9 20.8z"/>
	<path id="f115d1b6-9c1d-4192-bab1-4c1681c44a09-104" class="s0" d="m681.8 189.2v31.5h-30.5v-31.5h0.1l-0.2-0.2 8.8-15.2 14.6-0.2 7.2 15.2z"/>
	<path id="Layer" class="s1" d="m120.3 106.9h211.4v2h-211.4z"/>
	<path id="Layer" class="s1" d="m99.3 127.9h211.4v2h-211.4z"/>
	<path id="Layer" class="s1" d="m690.2 131.6h34.5v2h-34.5z"/>
	<path id="Layer" class="s1" d="m690.2 152.6h34.5v2h-34.5z"/>
	<path id="Layer" class="s1" d="m407.1 67.6h41.9v2h-41.9z"/>
	<path id="Layer" class="s1" d="m407.1 88.6h41.9v2h-41.9z"/>
</svg>